<svg width="32" height="32" viewBox="0 0 32 32" fill="none" xmlns="http://www.w3.org/2000/svg">
<rect width="32" height="32" rx="16" fill="#0078D8"/>
<path d="M22.917 13.6712C23.2594 13.0852 23.0562 12.3359 22.4631 11.9976C21.87 11.6593 21.1117 11.8601 20.7692 12.446L17.0898 18.7427C16.7474 19.3287 16.9506 20.078 17.5437 20.4163C18.1368 20.7546 18.8952 20.5539 19.2376 19.9679L22.917 13.6712Z" fill="white"/>
<path d="M13.4323 16.9294L15.1349 14.0157C15.4773 13.4297 16.2357 13.229 16.8288 13.5673C17.4219 13.9056 17.6251 14.6549 17.2827 15.2409L14.519 19.9705C14.1766 20.5565 13.4182 20.7572 12.8251 20.4189C12.6321 20.3088 12.4804 20.1552 12.3753 19.9778L12.3563 19.9887L8.66634 13.674C8.32392 13.088 8.52712 12.3387 9.12021 12.0004C9.7133 11.6621 10.4717 11.8629 10.8141 12.4489L13.4323 16.9294Z" fill="white"/>
</svg>
