<svg width="10" height="10" viewBox="0 0 10 10" fill="none" xmlns="http://www.w3.org/2000/svg">
<g clip-path="url(#clip0_3565_6963)">
<path d="M5 0.5C4.10999 0.5 3.23996 0.76392 2.49994 1.25839C1.75991 1.75285 1.18314 2.45566 0.842544 3.27792C0.50195 4.10019 0.412835 5.00499 0.586468 5.87791C0.760102 6.75082 1.18869 7.55264 1.81802 8.18198C2.44736 8.81132 3.24918 9.2399 4.1221 9.41353C4.99501 9.58717 5.89981 9.49805 6.72208 9.15746C7.54434 8.81686 8.24715 8.24009 8.74162 7.50007C9.23608 6.76004 9.5 5.89002 9.5 5C9.49654 3.80759 9.02132 2.66501 8.17816 1.82184C7.33499 0.97868 6.19241 0.503463 5 0.5ZM4.51517 6.76508C4.36872 6.91153 4.13128 6.91153 3.98484 6.76508L2.48488 5.26512C2.33845 5.1187 2.33845 4.8813 2.48488 4.73487C2.6313 4.58845 2.8687 4.58845 3.01513 4.73487L4.25 5.96975L6.98488 3.23487C7.1313 3.08845 7.3687 3.08845 7.51513 3.23487C7.66155 3.3813 7.66155 3.6187 7.51513 3.76512L4.51517 6.76508Z" fill="#1A94FF"/>
</g>
<defs>
<clipPath id="clip0_3565_6963">
<rect width="9" height="9" fill="white" transform="translate(0.5 0.5)"/>
</clipPath>
</defs>
</svg>
