<svg width="15" height="14" viewBox="0 0 15 14" fill="none" xmlns="http://www.w3.org/2000/svg">
<path fill-rule="evenodd" clip-rule="evenodd" d="M0.343142 0.275592C0.530758 0.114684 0.795577 0.0794558 1.01873 0.185721L14.1437 6.43572C14.3614 6.53936 14.5 6.75894 14.5 7.00001C14.5 7.24108 14.3614 7.46065 14.1437 7.5643L1.01873 13.8143C0.795577 13.9206 0.530758 13.8853 0.343142 13.7244C0.155527 13.5635 0.080361 13.3072 0.151384 13.0704L1.97251 7.00001L0.151384 0.929602C0.080361 0.69286 0.155527 0.4365 0.343142 0.275592ZM3.09005 7.62501L1.75359 12.0799L11.1088 7.62501H3.09005ZM11.1088 6.37501H3.09005L1.75359 1.92014L11.1088 6.37501Z" fill="#767B92"/>
</svg>
