<svg width="36" height="36" viewBox="0 0 36 36" fill="none" xmlns="http://www.w3.org/2000/svg">
<path d="M-0.000976562 0H27.999C32.4173 0 35.999 3.58172 35.999 8V36L-0.000976562 0Z" fill="#0078D8"/>
<path fill-rule="evenodd" clip-rule="evenodd" d="M24.6478 14.8056L29.5468 9.20565C29.7177 9.01004 29.7713 8.7381 29.6874 8.49225C29.6035 8.2464 29.3948 8.064 29.1399 8.01375C28.8851 7.9635 28.6227 8.05304 28.4518 8.24865L23.8718 13.4816L22.2408 11.8496C21.9569 11.5655 21.4964 11.5653 21.2123 11.8491C20.9281 12.133 20.9279 12.5935 21.2118 12.8776L23.1878 14.8536C23.3834 15.0495 23.6515 15.1555 23.9282 15.1465C24.2049 15.1374 24.4654 15.014 24.6478 14.8056Z" fill="white"/>
</svg>
