<svg width="48" height="48" viewBox="0 0 49 48" fill="none" xmlns="http://www.w3.org/2000/svg">
<g clip-path="url(#clip0_695_40311)">
<path d="M48.5 24C48.5 10.7452 37.7548 0 24.5 0C11.2452 0 0.5 10.7452 0.5 24C0.5 37.2548 11.2452 48 24.5 48C37.7548 48 48.5 37.2548 48.5 24Z" fill="#FD7E14"/>
<mask id="mask0_695_40311" style="mask-type:luminance" maskUnits="userSpaceOnUse" x="12" y="12" width="25" height="24">
<path d="M12.5 12H36.5V36H12.5V12Z" fill="white"/>
</mask>
<g mask="url(#mask0_695_40311)">
<path d="M30.5 34H18.5C17.396 34 16.5 33.186 16.5 32.182V18.389C16.5 17.907 16.711 17.445 17.086 17.104L19.915 14.533C20.29 14.192 20.798 14 21.329 14H30.5C31.605 14 32.5 14.814 32.5 15.818V32.182C32.5 33.186 31.605 34 30.5 34Z" fill="#FCFCFD" stroke="white" stroke-width="1.8"/>
<path d="M28.692 28.072C28.74 27.768 28.772 27.496 28.772 27.224C28.772 26.024 28.388 25.032 27.62 24.216C26.868 23.4 25.892 23 24.724 23C23.492 23 22.468 23.4 21.684 24.216C20.9 25.016 20.5 26.024 20.5 27.224C20.5 28.44 20.9 29.448 21.7 30.248C22.5 31.048 23.556 31.448 24.884 31.448C26.42 31.448 27.588 30.872 28.372 29.736L26.708 28.776C26.308 29.304 25.7 29.576 24.916 29.576C23.684 29.576 22.932 29.08 22.66 28.072H28.692ZM22.628 26.472C22.868 25.448 23.62 24.856 24.724 24.856C25.668 24.856 26.468 25.384 26.708 26.472H22.628Z" fill="#FD7E14"/>
</g>
</g>
<defs>
<clipPath id="clip0_695_40311">
<rect width="48" height="48" fill="white" transform="translate(0.5)"/>
</clipPath>
</defs>
</svg>
