<svg width="271" height="87" viewBox="0 0 271 87" fill="none" xmlns="http://www.w3.org/2000/svg">
<path fill-rule="evenodd" clip-rule="evenodd" d="M196.031 6.4295C195.351 6.62621 194.633 6.26235 194.435 5.62206C194.237 4.9809 194.633 4.29561 195.312 4.09846L206.582 0.835704C207.262 0.638558 207.98 1.00156 208.178 1.64229C208.376 2.28301 207.981 2.96873 207.301 3.16631L196.031 6.4295Z" fill="#F4B827"/>
<path fill-rule="evenodd" clip-rule="evenodd" d="M114.571 6.07571C114.571 4.95118 113.659 4.03967 112.535 4.03967C111.41 4.03967 110.499 4.95118 110.499 6.07571C110.499 7.20024 111.41 8.11175 112.535 8.11175C113.659 8.11175 114.571 7.20024 114.571 6.07571Z" fill="#F4B827"/>
<path fill-rule="evenodd" clip-rule="evenodd" d="M266.866 22.3642C266.866 21.2392 265.954 20.328 264.83 20.328C263.705 20.328 262.794 21.2392 262.794 22.3642C262.794 23.4889 263.705 24.4 264.83 24.4C265.954 24.4 266.866 23.4889 266.866 22.3642Z" fill="#8CE2FF"/>
<path fill-rule="evenodd" clip-rule="evenodd" d="M241.086 17.0572C240.764 17.1015 240.427 17.0341 240.14 16.8446C239.538 16.4479 239.39 15.6639 239.808 15.0928C239.816 15.0817 240.959 13.4616 240.483 12.0177C240.191 11.1369 239.303 10.4203 237.842 9.8887C235.437 9.01322 234.008 7.70332 233.595 5.99407C232.917 3.19502 235.333 0.647115 235.611 0.365345C236.112 -0.141395 236.951 -0.167576 237.485 0.30766C238.019 0.782009 238.048 1.57762 237.549 2.0848C237.062 2.58533 235.868 4.16102 236.182 5.4363C236.388 6.27495 237.266 6.98226 238.791 7.53781C241.058 8.36226 242.482 9.62424 243.022 11.2878C243.872 13.9107 242.064 16.4235 241.986 16.5296C241.768 16.8282 241.437 17.0097 241.086 17.0572Z" fill="#FFABD6"/>
<path fill-rule="evenodd" clip-rule="evenodd" d="M144.044 17.8947C143.897 17.6226 143.847 17.2964 143.929 16.9724C144.099 16.2941 144.78 15.8844 145.451 16.0564C145.463 16.0596 147.351 16.5109 148.538 15.5747C149.262 15.0028 149.635 13.9545 149.647 12.4589C149.666 9.99687 150.413 8.25466 151.867 7.28145C154.25 5.68624 157.424 6.94855 157.778 7.0978C158.416 7.36813 158.719 8.10944 158.453 8.75601C158.187 9.40124 157.456 9.70777 156.818 9.44056C156.191 9.18095 154.328 8.66843 153.244 9.40035C152.531 9.8807 152.163 10.9165 152.151 12.4786C152.134 14.799 151.43 16.5189 150.058 17.59C147.897 19.2772 144.958 18.5466 144.834 18.5145C144.483 18.4242 144.205 18.1919 144.044 17.8947Z" fill="#FFABD6"/>
<path fill-rule="evenodd" clip-rule="evenodd" d="M39.8472 0.0886069C40.1402 -0.0439828 40.4837 -0.0736469 40.8154 0.0297281C41.5116 0.245467 41.8933 0.964149 41.6693 1.63429C41.6651 1.64777 41.0693 3.53774 41.967 4.80341C42.5148 5.57512 43.5824 6.02099 45.1409 6.12661C47.705 6.301 49.4711 7.17025 50.3894 8.71053C51.8942 11.2333 50.3674 14.3786 50.1887 14.7297C49.8644 15.3607 49.0717 15.6214 48.4156 15.3099C47.7605 15.0002 47.4903 14.238 47.8109 13.606C48.123 12.9849 48.78 11.1237 48.0904 9.97575C47.6359 9.22067 46.5814 8.7811 44.9543 8.67098C42.5367 8.50648 40.7911 7.68218 39.766 6.22189C38.1506 3.91798 39.1076 0.976284 39.1491 0.852234C39.2663 0.501658 39.5266 0.233781 39.8472 0.0886069Z" fill="#76CAE7"/>
<path fill-rule="evenodd" clip-rule="evenodd" d="M193.569 53.3116C193.569 52.1865 192.657 51.2757 191.533 51.2757C190.408 51.2757 189.497 52.1865 189.497 53.3116C189.497 54.4362 190.408 55.3478 191.533 55.3478C192.657 55.3478 193.569 54.4362 193.569 53.3116Z" fill="#F4B827"/>
<path fill-rule="evenodd" clip-rule="evenodd" d="M216.373 27.2507C216.373 26.126 215.461 25.2144 214.337 25.2144C213.212 25.2144 212.301 26.126 212.301 27.2507C212.301 28.3753 213.212 29.2865 214.337 29.2865C215.461 29.2865 216.373 28.3753 216.373 27.2507Z" fill="#FFABD6"/>
<path fill-rule="evenodd" clip-rule="evenodd" d="M81.1945 11.2714C81.092 10.5478 81.5335 9.8648 82.1752 9.75569C82.8178 9.64566 83.4271 10.1483 83.5303 10.8724L85.237 22.8692C85.3394 23.5928 84.8992 24.2753 84.2566 24.3849C83.6149 24.4949 83.0048 23.9923 82.9015 23.2682L81.1945 11.2714Z" fill="#8FD2E8"/>
<path fill-rule="evenodd" clip-rule="evenodd" d="M235.526 44.4947C234.997 44.0082 234.961 43.2001 235.448 42.7012C235.935 42.1996 236.766 42.1882 237.297 42.6738L246.084 50.7271C246.614 51.2132 246.65 52.0204 246.163 52.5211C245.677 53.0218 244.844 53.0337 244.314 52.548L235.526 44.4947Z" fill="#8CE2FF"/>
</svg>
