<svg width="298" height="90" viewBox="0 0 298 90" fill="none" xmlns="http://www.w3.org/2000/svg">
<path fill-rule="evenodd" clip-rule="evenodd" d="M103.317 39.4665C103.317 38.3418 102.405 37.4307 101.281 37.4307C100.157 37.4307 99.2451 38.3418 99.2451 39.4665C99.2451 40.5916 100.157 41.5027 101.281 41.5027C102.405 41.5027 103.317 40.5916 103.317 39.4665Z" fill="#FFABD6"/>
<path fill-rule="evenodd" clip-rule="evenodd" d="M196.993 6.4295C196.313 6.62621 195.595 6.26235 195.396 5.62206C195.199 4.9809 195.595 4.29561 196.274 4.09846L207.544 0.835704C208.224 0.638558 208.942 1.00156 209.14 1.64229C209.337 2.28301 208.943 2.96873 208.263 3.16631L196.993 6.4295Z" fill="#F4B827"/>
<path fill-rule="evenodd" clip-rule="evenodd" d="M4.79819 76.5134C5.08655 75.8389 5.84323 75.5258 6.47639 75.8173C7.11044 76.1083 7.39213 76.8987 7.10244 77.5732L2.30555 88.7478C2.01585 89.4227 1.2605 89.7359 0.626903 89.4439C-0.0066991 89.1538 -0.289287 88.3625 0.000854388 87.688L4.79819 76.5134Z" fill="#F4B827"/>
<path fill-rule="evenodd" clip-rule="evenodd" d="M115.533 6.07571C115.533 4.95118 114.621 4.03967 113.497 4.03967C112.372 4.03967 111.461 4.95118 111.461 6.07571C111.461 7.20024 112.372 8.11175 113.497 8.11175C114.621 8.11175 115.533 7.20024 115.533 6.07571Z" fill="#F4B827"/>
<path fill-rule="evenodd" clip-rule="evenodd" d="M31.6482 45.1676C31.6482 44.0427 30.7362 43.1316 29.612 43.1316C28.4874 43.1316 27.5762 44.0427 27.5762 45.1676C27.5762 46.2922 28.4874 47.2037 29.612 47.2037C30.7362 47.2037 31.6482 46.2922 31.6482 45.1676Z" fill="#8FD2E8"/>
<path fill-rule="evenodd" clip-rule="evenodd" d="M267.829 22.3642C267.829 21.2392 266.917 20.328 265.792 20.328C264.668 20.328 263.757 21.2392 263.757 22.3642C263.757 23.4889 264.668 24.4 265.792 24.4C266.917 24.4 267.829 23.4889 267.829 22.3642Z" fill="#8CE2FF"/>
<path fill-rule="evenodd" clip-rule="evenodd" d="M242.048 17.0572C241.726 17.1015 241.389 17.0341 241.102 16.8446C240.5 16.4479 240.352 15.6639 240.77 15.0928C240.778 15.0817 241.921 13.4616 241.445 12.0177C241.153 11.1369 240.265 10.4203 238.804 9.8887C236.399 9.01322 234.97 7.70332 234.557 5.99407C233.879 3.19502 236.295 0.647115 236.572 0.365345C237.074 -0.141395 237.913 -0.167576 238.447 0.30766C238.981 0.782009 239.01 1.57762 238.511 2.0848C238.024 2.58533 236.83 4.16102 237.144 5.4363C237.35 6.27495 238.228 6.98226 239.753 7.53781C242.02 8.36226 243.444 9.62424 243.984 11.2878C244.834 13.9107 243.026 16.4235 242.948 16.5296C242.73 16.8282 242.399 17.0097 242.048 17.0572Z" fill="#FFABD6"/>
<path fill-rule="evenodd" clip-rule="evenodd" d="M145.007 17.8947C144.86 17.6226 144.81 17.2964 144.892 16.9724C145.062 16.2941 145.743 15.8844 146.413 16.0564C146.426 16.0596 148.314 16.5109 149.501 15.5747C150.225 15.0028 150.598 13.9545 150.61 12.4589C150.629 9.99687 151.376 8.25466 152.83 7.28145C155.213 5.68624 158.387 6.94855 158.741 7.0978C159.379 7.36813 159.682 8.10944 159.415 8.75601C159.15 9.40124 158.418 9.70777 157.781 9.44056C157.154 9.18095 155.291 8.66843 154.207 9.40035C153.494 9.8807 153.126 10.9165 153.114 12.4786C153.096 14.799 152.393 16.5189 151.021 17.59C148.86 19.2772 145.921 18.5466 145.797 18.5145C145.446 18.4242 145.168 18.1919 145.007 17.8947Z" fill="#FFABD6"/>
<path fill-rule="evenodd" clip-rule="evenodd" d="M-4.87107 51.1225C-5.00826 50.8336 -5.04221 50.4948 -4.9426 50.1643C-4.73433 49.4719 -4.01579 49.0836 -3.33755 49.2962C-3.32442 49.2999 -1.41285 49.8638 -0.149632 48.9574C0.620975 48.4036 1.05563 47.3401 1.14166 45.7953C1.28382 43.253 2.13638 41.4915 3.67578 40.5606C6.19678 39.0348 9.38515 40.5032 9.74103 40.6757C10.3812 40.9877 10.6538 41.7698 10.3491 42.4233C10.0453 43.0774 9.28102 43.3552 8.64081 43.0464C8.01056 42.7455 6.12705 42.1206 4.98065 42.8204C4.22589 43.2803 3.79712 44.3319 3.70702 45.9446C3.57346 48.3412 2.76618 50.0825 1.30827 51.1174C-0.991322 52.75 -3.9669 51.8431 -4.09231 51.8038C-4.44683 51.6924 -4.7203 51.4386 -4.87107 51.1225Z" fill="#FFABD6"/>
<path fill-rule="evenodd" clip-rule="evenodd" d="M64.761 56.1486C64.4449 56.1027 64.1463 55.9443 63.9319 55.6806C63.4824 55.1302 63.5749 54.3273 64.1385 53.8872C64.1491 53.8782 65.7079 52.6195 65.6872 51.0839C65.6738 50.1474 65.0486 49.2073 63.8279 48.2879C61.8201 46.7753 60.8612 45.1093 60.9772 43.3339C61.1681 40.4263 64.2024 38.6158 64.548 38.4182C65.1719 38.0645 65.9711 38.2697 66.3327 38.8791C66.6966 39.4866 66.4868 40.2683 65.8662 40.6234C65.2584 40.9758 63.6646 42.1792 63.5827 43.5041C63.5279 44.3758 64.1468 45.3046 65.4212 46.2646C67.3145 47.6898 68.2826 49.309 68.2973 51.074C68.3226 53.8579 65.8717 55.8021 65.7668 55.8835C65.4723 56.1131 65.1075 56.1981 64.761 56.1486Z" fill="#F4B827"/>
<path fill-rule="evenodd" clip-rule="evenodd" d="M40.8101 0.0886069C41.1031 -0.0439828 41.4465 -0.0736469 41.7783 0.0297281C42.4745 0.245467 42.8562 0.964149 42.6322 1.63429C42.628 1.64777 42.0321 3.53774 42.9299 4.80341C43.4777 5.57512 44.5453 6.02099 46.1038 6.12661C48.6678 6.301 50.434 7.17025 51.3523 8.71053C52.8571 11.2333 51.3303 14.3786 51.1516 14.7297C50.8273 15.3607 50.0346 15.6214 49.3785 15.3099C48.7234 15.0002 48.4532 14.238 48.7738 13.606C49.0859 12.9849 49.7429 11.1237 49.0533 9.97575C48.5988 9.22067 47.5442 8.7811 45.9172 8.67098C43.4996 8.50648 41.754 7.68218 40.7289 6.22189C39.1135 3.91798 40.0705 0.976284 40.112 0.852234C40.2291 0.501658 40.4895 0.233781 40.8101 0.0886069Z" fill="#76CAE7"/>
<path fill-rule="evenodd" clip-rule="evenodd" d="M129.379 50.0543C129.379 48.9293 128.467 48.0181 127.343 48.0181C126.218 48.0181 125.307 48.9293 125.307 50.0543C125.307 51.179 126.218 52.0901 127.343 52.0901C128.467 52.0901 129.379 51.179 129.379 50.0543Z" fill="#76CAE7"/>
<path fill-rule="evenodd" clip-rule="evenodd" d="M217.335 27.2507C217.335 26.126 216.423 25.2144 215.299 25.2144C214.174 25.2144 213.263 26.126 213.263 27.2507C213.263 28.3753 214.174 29.2865 215.299 29.2865C216.423 29.2865 217.335 28.3753 217.335 27.2507Z" fill="#FFABD6"/>
<path fill-rule="evenodd" clip-rule="evenodd" d="M1.5304 5.57053C1.42795 4.8469 1.86939 4.1639 2.51114 4.05479C3.15373 3.94476 3.763 4.44742 3.86628 5.17151L5.57289 17.1683C5.67534 17.8924 5.23515 18.5745 4.59257 18.684C3.95081 18.7941 3.34071 18.2914 3.23743 17.5673L1.5304 5.57053Z" fill="#8FD2E8"/>
<path fill-rule="evenodd" clip-rule="evenodd" d="M82.1574 11.2714C82.0549 10.5478 82.4963 9.8648 83.1381 9.75569C83.7807 9.64566 84.3899 10.1483 84.4932 10.8724L86.1998 22.8692C86.3023 23.5928 85.8621 24.2753 85.2195 24.3849C84.5778 24.4949 83.9677 23.9923 83.8644 23.2682L82.1574 11.2714Z" fill="#8FD2E8"/>
<path fill-rule="evenodd" clip-rule="evenodd" d="M280.045 21.6793C280.047 21.3703 280.162 21.0632 280.396 20.8217C280.881 20.3147 281.694 20.2908 282.212 20.7675C282.222 20.7759 283.695 22.0881 285.221 21.8533C286.153 21.7099 287.003 20.9806 287.748 19.6857C288.974 17.5567 290.501 16.4075 292.286 16.2694C295.211 16.0448 297.44 18.6883 297.684 18.9901C298.124 19.537 298.032 20.3289 297.475 20.7595C296.92 21.1923 296.112 21.1018 295.672 20.5584C295.236 20.0275 293.813 18.6741 292.482 18.7815C291.605 18.8512 290.766 19.5725 289.988 20.9233C288.833 22.9324 287.354 24.0835 285.596 24.3454C282.826 24.7591 280.546 22.6905 280.45 22.6026C280.179 22.3531 280.044 22.0167 280.045 21.6793Z" fill="#F4B827"/>
</svg>
