<svg width="32" height="32" viewBox="0 0 32 32" fill="none" xmlns="http://www.w3.org/2000/svg">
<path fill-rule="evenodd" clip-rule="evenodd" d="M27 12.9C27 11.8507 26.1404 11 25.08 11H4.92C3.85961 11 3 11.8507 3 12.9V25.1C3 26.1493 3.85961 27 4.92 27H25.08C26.1404 27 27 26.1493 27 25.1V12.9ZM4.92 12H25.08L25.1941 12.007C25.6425 12.0625 25.9895 12.4412 25.9895 12.9V25.1L25.9824 25.2129C25.9263 25.6567 25.5437 26 25.08 26H4.92L4.80592 25.993C4.35748 25.9375 4.01053 25.5588 4.01053 25.1V12.9L4.01761 12.7871C4.07373 12.3433 4.45635 12 4.92 12Z" fill="#252731"/>
<path d="M27.7892 22H27V23H27.7892C28.9873 23 30 22.0022 30 20.8206V10.2119C30 8.99219 29.008 8 27.7892 8H10.1788C8.97729 8 8 8.99219 8 10.2119V11H8.95617V10.2119C8.95617 9.60203 9.58682 8.96399 10.1788 8.96399H27.7892C28.3986 8.96399 29.0303 9.60203 29.0303 10.2119V20.8206C29.0303 21.4024 28.3885 22 27.7892 22Z" fill="#252731"/>
<path d="M6.5 23H10.5C10.7761 23 11 22.7761 11 22.5C11 22.2239 10.7761 22 10.5 22H6.5C6.22386 22 6 22.2239 6 22.5C6 22.7761 6.22386 23 6.5 23Z" fill="#252731"/>
<path fill-rule="evenodd" clip-rule="evenodd" d="M18.5 24C17.1453 24 16 22.8564 16 21.5008C16 20.1452 17.1453 19 18.5 19C19.8787 19 21 20.1221 21 21.5008C21 22.8797 19.8787 24 18.5 24Z" fill="#0078D8"/>
<path opacity="0.5" fill-rule="evenodd" clip-rule="evenodd" d="M21.5 24C20.1453 24 19 22.8564 19 21.5008C19 20.1452 20.1453 19 21.5 19C22.8787 19 24 20.1221 24 21.5008C24 22.8797 22.8787 24 21.5 24Z" fill="#0078D8"/>
</svg>
