<svg width="32" height="32" viewBox="0 0 32 32" fill="none" xmlns="http://www.w3.org/2000/svg">
<path fill-rule="evenodd" clip-rule="evenodd" d="M2.17957 6C3.05501 6 3.76471 6.70969 3.76471 7.58514V7.88235H11.6637C12.8114 7.88235 13.3324 8.225 14.2358 9.41224L15.8465 11.6471H30.2624C31.222 11.6471 32 12.4402 32 13.4187V24.9343C32 25.9127 31.222 26.7059 30.2624 26.7059H11.1493C10.1897 26.7059 9.41174 25.9127 9.41174 24.9343V19.6833H8.03056C7.20288 19.6833 6.41436 19.3064 5.68079 18.6898C5.51511 18.5505 5.35997 18.4051 5.21619 18.2575L4.96562 17.9855L4.906 17.916L3.73127 17.9167C3.58119 18.6361 2.94348 19.1765 2.17957 19.1765H1.58514C0.709691 19.1765 0 18.4668 0 17.5913V7.58514C0 6.70969 0.709691 6 1.58514 6H2.17957ZM3.76471 16.9758H5.3697L5.542 17.2076L5.64335 17.3304C5.66442 17.355 5.68754 17.3815 5.71264 17.4097C5.88231 17.6006 6.07526 17.7918 6.28641 17.9693C6.80818 18.4079 7.34414 18.683 7.85956 18.7337L8.03056 18.7422H9.41174V16.1142L8.78495 16.1144C7.74476 16.1144 7.00673 15.7562 6.5663 15.1354L6.47647 14.9984C6.23717 14.6028 6.14194 14.205 6.12188 13.813L6.11768 13.6454H7.05885C7.05885 13.9351 7.11528 14.236 7.28177 14.5112C7.51253 14.8927 7.9174 15.1311 8.5937 15.1681L8.78495 15.1732H10.6145L12.0877 16.5172C12.6209 16.9051 13.4146 16.9156 14.0576 16.6037C14.5588 16.3606 14.6664 16.1349 14.5092 15.9919L11.2886 13.0621L11.2941 11.8585V11.6471H14.7371L13.5291 9.97118C12.7952 9.00801 12.5004 8.81417 11.6637 8.81417H3.76471V16.9758ZM2.17957 6.79257H1.58514C1.18109 6.79257 0.847652 7.09492 0.798745 7.48572L0.79257 7.58514V17.5913C0.79257 17.9954 1.09492 18.3288 1.48572 18.3777L1.58514 18.3839H2.17957C2.58362 18.3839 2.91705 18.0815 2.96596 17.6908L2.97214 17.5913V7.58514C2.97214 7.18109 2.66978 6.84765 2.27898 6.79874L2.17957 6.79257ZM10.3529 24.8863V16.2076L11.4942 17.2459L11.6621 17.3591C12.5171 17.8886 13.5921 17.8756 14.4684 17.4505C15.4765 16.9615 15.9294 16.0116 15.1425 15.2957L12.1664 12.5882H30.1961C30.6725 12.5882 31.0588 12.9815 31.0588 13.4667V24.8863C31.0588 25.3714 30.6725 25.7647 30.1961 25.7647H11.2157C10.7392 25.7647 10.3529 25.3714 10.3529 24.8863Z" fill="#252731"/>
<circle cx="20.7059" cy="19.1765" r="4.70588" fill="#0078D8"/>
<path d="M21.5929 19.0233L20.0489 18.6513C19.8201 18.5957 19.6599 18.4173 19.6599 18.2168C19.6599 17.9675 19.9001 17.765 20.195 17.765H21.16C21.3754 17.765 21.5804 17.8214 21.7516 17.9265C21.8298 17.9743 21.9404 17.9587 22.0089 17.9009L22.3075 17.6489C22.399 17.5717 22.3843 17.4456 22.2816 17.3792C21.9611 17.1716 21.571 17.0591 21.16 17.0591H21.1239V16.5294C21.1239 16.4319 21.0303 16.3529 20.9148 16.3529H20.4965C20.3809 16.3529 20.2873 16.4319 20.2873 16.5294V17.0588H20.195C19.3953 17.0588 18.7537 17.639 18.8293 18.3268C18.8832 18.8157 19.3276 19.2119 19.8868 19.3464L21.3624 19.7018C21.5911 19.7574 21.7514 19.9359 21.7514 20.1364C21.7514 20.3857 21.5111 20.5882 21.2162 20.5882H20.2513C20.0358 20.5882 19.8309 20.5317 19.6596 20.4267C19.5815 20.3788 19.4709 20.3945 19.4024 20.4523L19.1038 20.7042C19.0123 20.7814 19.0269 20.9074 19.1297 20.974C19.4502 21.1816 19.8403 21.2941 20.2513 21.2941H20.2873V21.8235C20.2873 21.921 20.3809 22 20.4965 22H20.9148C21.0303 22 21.1239 21.921 21.1239 21.8235V21.2941H21.1595C21.7558 21.2941 22.3184 20.9943 22.5116 20.5182C22.777 19.8644 22.3213 19.1993 21.5929 19.0233Z" fill="white"/>
</svg>
