<svg width="32" height="32" viewBox="0 0 32 32" fill="none" xmlns="http://www.w3.org/2000/svg">
<mask id="mask0_5226_6201" style="mask-type:alpha" maskUnits="userSpaceOnUse" x="3" y="3" width="26" height="26">
<path d="M10.6917 3L21.3083 3C23.9829 3 24.9528 3.27848 25.9305 3.8014C26.9083 4.32432 27.6757 5.09169 28.1986 6.06946C28.7215 7.04724 29 8.0171 29 10.6917V21.3083C29 23.9829 28.7215 24.9528 28.1986 25.9305C27.6757 26.9083 26.9083 27.6757 25.9305 28.1986C24.9528 28.7215 23.9829 29 21.3083 29H10.6917C8.0171 29 7.04724 28.7215 6.06946 28.1986C5.09169 27.6757 4.32432 26.9083 3.8014 25.9305C3.27848 24.9528 3 23.9829 3 21.3083L3 10.6917C3 8.0171 3.27848 7.04724 3.8014 6.06946C4.32432 5.09169 5.09169 4.32432 6.06946 3.8014C7.04724 3.27848 8.0171 3 10.6917 3Z" fill="white"/>
</mask>
<g mask="url(#mask0_5226_6201)">
<path d="M10.6917 3L21.3083 3C23.9829 3 24.9528 3.27848 25.9305 3.8014C26.9083 4.32432 27.6757 5.09169 28.1986 6.06946C28.7215 7.04724 29 8.0171 29 10.6917V21.3083C29 23.9829 28.7215 24.9528 28.1986 25.9305C27.6757 26.9083 26.9083 27.6757 25.9305 28.1986C24.9528 28.7215 23.9829 29 21.3083 29H10.6917C8.0171 29 7.04724 28.7215 6.06946 28.1986C5.09169 27.6757 4.32432 26.9083 3.8014 25.9305C3.27848 24.9528 3 23.9829 3 21.3083L3 10.6917C3 8.0171 3.27848 7.04724 3.8014 6.06946C4.32432 5.09169 5.09169 4.32432 6.06946 3.8014C7.04724 3.27848 8.0171 3 10.6917 3Z" fill="#A50064"/>
<path d="M21.1624 8C19.0427 8 17.3247 9.61575 17.3247 11.609C17.3247 13.6025 19.0427 15.2184 21.1624 15.2184C23.2819 15.2184 25 13.6025 25 11.609C25 9.61575 23.2819 8 21.1624 8ZM21.1624 13.1494C20.2632 13.1494 19.5325 12.4623 19.5325 11.6168C19.5325 10.7711 20.2632 10.084 21.1624 10.084C22.0615 10.084 22.7922 10.7711 22.7922 11.6168C22.7922 12.4623 22.0615 13.1496 21.1624 13.1496V13.1494ZM16.2168 15.2262H14.0089V10.6881C14.0089 10.3483 13.7198 10.0768 13.3587 10.0768C12.9974 10.0768 12.7083 10.3483 12.7083 10.6881V15.2262H10.5006V10.6881C10.5006 10.3483 10.2117 10.0768 9.85038 10.0768C9.48906 10.0768 9.19994 10.3483 9.19994 10.6881V15.2262H7V10.7107C7 9.2157 8.29262 8 9.88225 8C10.5325 8 11.1267 8.20391 11.6084 8.54357C12.1645 8.18119 12.7399 8 13.3345 8C14.9241 8 16.2168 9.2157 16.2168 10.7107V15.2262ZM21.1624 16.7816C19.0427 16.7816 17.3247 18.3973 17.3247 20.3906C17.3247 22.3841 19.0427 24 21.1624 24C23.2819 23.9998 25 22.3839 25 20.3906C25 18.3973 23.2819 16.7814 21.1624 16.7814V16.7816ZM13.3345 16.7732C14.9241 16.7732 16.2168 17.9889 16.2168 19.4839V23.9994H14.0089V19.4614C14.0089 19.1215 13.7198 18.85 13.3587 18.85C12.9974 18.85 12.7083 19.1215 12.7083 19.4614V23.9994H10.5006V19.4614C10.5006 19.1215 10.2117 18.85 9.85038 18.85C9.48906 18.85 9.19994 19.1215 9.19994 19.4614V23.9994H7V19.4839C7 17.9889 8.29262 16.7732 9.88225 16.7732C10.5325 16.7732 11.1267 16.9772 11.6084 17.3168C12.1645 16.9544 12.7399 16.7732 13.3345 16.7732ZM21.1624 18.8655C22.0615 18.8655 22.7922 19.5526 22.7922 20.3984C22.7922 21.2439 22.0615 21.931 21.1624 21.931C20.2632 21.931 19.5325 21.2439 19.5325 20.3984C19.5325 19.5526 20.2632 18.8655 21.1624 18.8655Z" fill="white"/>
</g>
</svg>
