<svg width="48" height="48" viewBox="0 0 48 48" fill="none" xmlns="http://www.w3.org/2000/svg">
<g clip-path="url(#clip0_695_40296)">
<path d="M47.999 24C47.999 10.7452 37.2539 0 23.999 0C10.7442 0 -0.000976562 10.7452 -0.000976562 24C-0.000976562 37.2548 10.7442 48 23.999 48C37.2539 48 47.999 37.2548 47.999 24Z" fill="#28A745"/>
<mask id="mask0_695_40296" style="mask-type:luminance" maskUnits="userSpaceOnUse" x="11" y="12" width="25" height="24">
<path d="M11.999 12H35.999V36H11.999V12Z" fill="white"/>
</mask>
<g mask="url(#mask0_695_40296)">
<path d="M29.999 34H17.999C16.895 34 15.999 33.186 15.999 32.182V18.389C15.999 17.907 16.21 17.445 16.585 17.104L19.414 14.533C19.789 14.192 20.297 14 20.828 14H29.999C31.104 14 31.999 14.814 31.999 15.818V32.182C31.999 33.186 31.104 34 29.999 34Z" fill="#FCFCFD" stroke="white" stroke-width="1.8"/>
<path d="M19.1992 27C19.639 27.8987 20.3218 28.6561 21.1703 29.1863C22.0187 29.7166 22.9987 29.9985 23.9992 30C24.9997 29.9985 25.9798 29.7166 26.8282 29.1863C27.6766 28.6561 28.3594 27.8987 28.7992 27" stroke="#39B44A" stroke-width="2"/>
</g>
</g>
<defs>
<clipPath id="clip0_695_40296">
<rect width="48" height="48" fill="white" transform="translate(-0.000976562)"/>
</clipPath>
</defs>
</svg>
